<mxfile host="app.diagrams.net" modified="2022-05-26T05:20:55.438Z" agent="5.0 (Windows NT 10.0; Win64; x64) AppleWebKit/537.36 (KHTML, like Gecko) Chrome/101.0.4951.64 Safari/537.36 Edg/101.0.1210.53" etag="ROmwIM27NbmDo4ufbWMx" version="18.0.7" type="github">
  <diagram id="c71H-UEiv5kGWuatgabk" name="Page-1">
    <mxGraphModel dx="1038" dy="579" grid="1" gridSize="10" guides="1" tooltips="1" connect="1" arrows="1" fold="1" page="1" pageScale="1" pageWidth="827" pageHeight="1169" math="0" shadow="0">
      <root>
        <mxCell id="0" />
        <mxCell id="1" parent="0" />
        <mxCell id="TGcVva4WvWsiuMBKOWC4-3" style="edgeStyle=orthogonalEdgeStyle;rounded=0;orthogonalLoop=1;jettySize=auto;html=1;exitX=0.5;exitY=1;exitDx=0;exitDy=0;entryX=0.5;entryY=0;entryDx=0;entryDy=0;endArrow=none;endFill=0;" edge="1" parent="1" source="TGcVva4WvWsiuMBKOWC4-1" target="TGcVva4WvWsiuMBKOWC4-2">
          <mxGeometry relative="1" as="geometry" />
        </mxCell>
        <mxCell id="TGcVva4WvWsiuMBKOWC4-1" value="" style="ellipse;whiteSpace=wrap;html=1;aspect=fixed;" vertex="1" parent="1">
          <mxGeometry x="80" y="80" width="40" height="40" as="geometry" />
        </mxCell>
        <mxCell id="TGcVva4WvWsiuMBKOWC4-2" value="" style="ellipse;whiteSpace=wrap;html=1;aspect=fixed;" vertex="1" parent="1">
          <mxGeometry x="80" y="240" width="40" height="40" as="geometry" />
        </mxCell>
        <mxCell id="TGcVva4WvWsiuMBKOWC4-4" value="&lt;font style=&quot;font-size: 36px;&quot;&gt;&lt;b&gt;G&lt;/b&gt;&lt;/font&gt;" style="text;html=1;strokeColor=none;fillColor=none;align=center;verticalAlign=middle;whiteSpace=wrap;rounded=0;" vertex="1" parent="1">
          <mxGeometry x="70" y="30" width="60" height="30" as="geometry" />
        </mxCell>
        <mxCell id="TGcVva4WvWsiuMBKOWC4-9" style="edgeStyle=orthogonalEdgeStyle;rounded=0;orthogonalLoop=1;jettySize=auto;html=1;exitX=0.5;exitY=1;exitDx=0;exitDy=0;entryX=0.5;entryY=0;entryDx=0;entryDy=0;fontSize=24;endArrow=none;endFill=0;" edge="1" parent="1" source="TGcVva4WvWsiuMBKOWC4-5" target="TGcVva4WvWsiuMBKOWC4-6">
          <mxGeometry relative="1" as="geometry" />
        </mxCell>
        <mxCell id="TGcVva4WvWsiuMBKOWC4-5" value="" style="ellipse;whiteSpace=wrap;html=1;aspect=fixed;" vertex="1" parent="1">
          <mxGeometry x="200" y="40" width="40" height="40" as="geometry" />
        </mxCell>
        <mxCell id="TGcVva4WvWsiuMBKOWC4-6" value="" style="ellipse;whiteSpace=wrap;html=1;aspect=fixed;" vertex="1" parent="1">
          <mxGeometry x="200" y="280" width="40" height="40" as="geometry" />
        </mxCell>
        <mxCell id="TGcVva4WvWsiuMBKOWC4-7" value="" style="ellipse;whiteSpace=wrap;html=1;aspect=fixed;" vertex="1" parent="1">
          <mxGeometry x="360" y="240" width="40" height="40" as="geometry" />
        </mxCell>
        <mxCell id="TGcVva4WvWsiuMBKOWC4-8" value="" style="ellipse;whiteSpace=wrap;html=1;aspect=fixed;" vertex="1" parent="1">
          <mxGeometry x="480" y="80" width="40" height="40" as="geometry" />
        </mxCell>
        <mxCell id="TGcVva4WvWsiuMBKOWC4-10" value="" style="endArrow=none;html=1;rounded=0;fontSize=24;" edge="1" parent="1">
          <mxGeometry width="50" height="50" relative="1" as="geometry">
            <mxPoint x="240" y="300" as="sourcePoint" />
            <mxPoint x="360" y="270" as="targetPoint" />
          </mxGeometry>
        </mxCell>
        <mxCell id="TGcVva4WvWsiuMBKOWC4-11" value="" style="endArrow=none;html=1;rounded=0;fontSize=24;exitX=1;exitY=0;exitDx=0;exitDy=0;entryX=0.35;entryY=0.995;entryDx=0;entryDy=0;entryPerimeter=0;" edge="1" parent="1" source="TGcVva4WvWsiuMBKOWC4-7" target="TGcVva4WvWsiuMBKOWC4-8">
          <mxGeometry width="50" height="50" relative="1" as="geometry">
            <mxPoint x="400" y="240" as="sourcePoint" />
            <mxPoint x="450" y="190" as="targetPoint" />
          </mxGeometry>
        </mxCell>
        <mxCell id="TGcVva4WvWsiuMBKOWC4-12" value="" style="endArrow=none;html=1;rounded=0;fontSize=24;exitX=1;exitY=0;exitDx=0;exitDy=0;" edge="1" parent="1" source="TGcVva4WvWsiuMBKOWC4-6">
          <mxGeometry width="50" height="50" relative="1" as="geometry">
            <mxPoint x="230" y="280" as="sourcePoint" />
            <mxPoint x="480" y="110" as="targetPoint" />
          </mxGeometry>
        </mxCell>
        <mxCell id="TGcVva4WvWsiuMBKOWC4-13" value="" style="endArrow=none;html=1;rounded=0;fontSize=24;entryX=0;entryY=0;entryDx=0;entryDy=0;exitX=1;exitY=1;exitDx=0;exitDy=0;" edge="1" parent="1" source="TGcVva4WvWsiuMBKOWC4-5" target="TGcVva4WvWsiuMBKOWC4-7">
          <mxGeometry width="50" height="50" relative="1" as="geometry">
            <mxPoint x="240" y="70" as="sourcePoint" />
            <mxPoint x="290" y="20" as="targetPoint" />
          </mxGeometry>
        </mxCell>
        <mxCell id="TGcVva4WvWsiuMBKOWC4-14" value="&lt;font style=&quot;font-size: 24px;&quot;&gt;&lt;i&gt;k&lt;/i&gt; = 3&lt;/font&gt;" style="text;html=1;strokeColor=none;fillColor=none;align=center;verticalAlign=middle;whiteSpace=wrap;rounded=0;fontSize=24;" vertex="1" parent="1">
          <mxGeometry x="480" y="240" width="80" height="40" as="geometry" />
        </mxCell>
        <mxCell id="TGcVva4WvWsiuMBKOWC4-15" value="" style="endArrow=classic;html=1;rounded=0;fontSize=36;" edge="1" parent="1">
          <mxGeometry width="50" height="50" relative="1" as="geometry">
            <mxPoint x="560" y="180" as="sourcePoint" />
            <mxPoint x="680" y="180" as="targetPoint" />
          </mxGeometry>
        </mxCell>
        <mxCell id="TGcVva4WvWsiuMBKOWC4-16" value="&lt;font style=&quot;font-size: 24px;&quot;&gt;&lt;i&gt;f&lt;/i&gt;&lt;/font&gt;" style="text;html=1;strokeColor=none;fillColor=none;align=center;verticalAlign=middle;whiteSpace=wrap;rounded=0;fontSize=24;" vertex="1" parent="1">
          <mxGeometry x="580" y="140" width="80" height="40" as="geometry" />
        </mxCell>
        <mxCell id="TGcVva4WvWsiuMBKOWC4-17" style="edgeStyle=orthogonalEdgeStyle;rounded=0;orthogonalLoop=1;jettySize=auto;html=1;exitX=0.5;exitY=1;exitDx=0;exitDy=0;entryX=0.5;entryY=0;entryDx=0;entryDy=0;endArrow=none;endFill=0;startArrow=none;" edge="1" parent="1" source="TGcVva4WvWsiuMBKOWC4-31" target="TGcVva4WvWsiuMBKOWC4-19">
          <mxGeometry relative="1" as="geometry" />
        </mxCell>
        <mxCell id="TGcVva4WvWsiuMBKOWC4-18" value="" style="ellipse;whiteSpace=wrap;html=1;aspect=fixed;" vertex="1" parent="1">
          <mxGeometry x="720" y="80" width="40" height="40" as="geometry" />
        </mxCell>
        <mxCell id="TGcVva4WvWsiuMBKOWC4-19" value="" style="ellipse;whiteSpace=wrap;html=1;aspect=fixed;" vertex="1" parent="1">
          <mxGeometry x="720" y="240" width="40" height="40" as="geometry" />
        </mxCell>
        <mxCell id="TGcVva4WvWsiuMBKOWC4-20" value="&lt;font style=&quot;font-size: 36px;&quot;&gt;&lt;b&gt;G&#39;&lt;/b&gt;&lt;/font&gt;" style="text;html=1;strokeColor=none;fillColor=none;align=center;verticalAlign=middle;whiteSpace=wrap;rounded=0;" vertex="1" parent="1">
          <mxGeometry x="710" y="30" width="60" height="30" as="geometry" />
        </mxCell>
        <mxCell id="TGcVva4WvWsiuMBKOWC4-21" style="edgeStyle=orthogonalEdgeStyle;rounded=0;orthogonalLoop=1;jettySize=auto;html=1;exitX=0.5;exitY=1;exitDx=0;exitDy=0;entryX=0.5;entryY=0;entryDx=0;entryDy=0;fontSize=24;endArrow=none;endFill=0;startArrow=none;" edge="1" parent="1" source="TGcVva4WvWsiuMBKOWC4-34" target="TGcVva4WvWsiuMBKOWC4-23">
          <mxGeometry relative="1" as="geometry" />
        </mxCell>
        <mxCell id="TGcVva4WvWsiuMBKOWC4-22" value="" style="ellipse;whiteSpace=wrap;html=1;aspect=fixed;" vertex="1" parent="1">
          <mxGeometry x="840" y="40" width="40" height="40" as="geometry" />
        </mxCell>
        <mxCell id="TGcVva4WvWsiuMBKOWC4-23" value="" style="ellipse;whiteSpace=wrap;html=1;aspect=fixed;" vertex="1" parent="1">
          <mxGeometry x="840" y="280" width="40" height="40" as="geometry" />
        </mxCell>
        <mxCell id="TGcVva4WvWsiuMBKOWC4-24" value="" style="ellipse;whiteSpace=wrap;html=1;aspect=fixed;" vertex="1" parent="1">
          <mxGeometry x="1000" y="240" width="40" height="40" as="geometry" />
        </mxCell>
        <mxCell id="TGcVva4WvWsiuMBKOWC4-25" value="" style="ellipse;whiteSpace=wrap;html=1;aspect=fixed;" vertex="1" parent="1">
          <mxGeometry x="1120" y="80" width="40" height="40" as="geometry" />
        </mxCell>
        <mxCell id="TGcVva4WvWsiuMBKOWC4-26" value="" style="endArrow=none;html=1;rounded=0;fontSize=24;startArrow=none;" edge="1" parent="1" source="TGcVva4WvWsiuMBKOWC4-40">
          <mxGeometry width="50" height="50" relative="1" as="geometry">
            <mxPoint x="880" y="300" as="sourcePoint" />
            <mxPoint x="1000" y="270" as="targetPoint" />
          </mxGeometry>
        </mxCell>
        <mxCell id="TGcVva4WvWsiuMBKOWC4-27" value="" style="endArrow=none;html=1;rounded=0;fontSize=24;exitX=1;exitY=0;exitDx=0;exitDy=0;entryX=0.35;entryY=0.995;entryDx=0;entryDy=0;entryPerimeter=0;startArrow=none;" edge="1" parent="1" source="TGcVva4WvWsiuMBKOWC4-42" target="TGcVva4WvWsiuMBKOWC4-25">
          <mxGeometry width="50" height="50" relative="1" as="geometry">
            <mxPoint x="1040" y="240" as="sourcePoint" />
            <mxPoint x="1090" y="190" as="targetPoint" />
          </mxGeometry>
        </mxCell>
        <mxCell id="TGcVva4WvWsiuMBKOWC4-28" value="" style="endArrow=none;html=1;rounded=0;fontSize=24;exitX=1;exitY=0;exitDx=0;exitDy=0;startArrow=none;" edge="1" parent="1" source="TGcVva4WvWsiuMBKOWC4-38">
          <mxGeometry width="50" height="50" relative="1" as="geometry">
            <mxPoint x="870" y="280" as="sourcePoint" />
            <mxPoint x="1120" y="110" as="targetPoint" />
          </mxGeometry>
        </mxCell>
        <mxCell id="TGcVva4WvWsiuMBKOWC4-29" value="" style="endArrow=none;html=1;rounded=0;fontSize=24;entryX=0;entryY=0;entryDx=0;entryDy=0;exitX=1;exitY=1;exitDx=0;exitDy=0;startArrow=none;" edge="1" parent="1" source="TGcVva4WvWsiuMBKOWC4-36" target="TGcVva4WvWsiuMBKOWC4-24">
          <mxGeometry width="50" height="50" relative="1" as="geometry">
            <mxPoint x="880" y="70" as="sourcePoint" />
            <mxPoint x="930" y="20" as="targetPoint" />
          </mxGeometry>
        </mxCell>
        <mxCell id="TGcVva4WvWsiuMBKOWC4-31" value="" style="ellipse;whiteSpace=wrap;html=1;aspect=fixed;fontSize=36;" vertex="1" parent="1">
          <mxGeometry x="730" y="170" width="20" height="20" as="geometry" />
        </mxCell>
        <mxCell id="TGcVva4WvWsiuMBKOWC4-32" value="" style="edgeStyle=orthogonalEdgeStyle;rounded=0;orthogonalLoop=1;jettySize=auto;html=1;exitX=0.5;exitY=1;exitDx=0;exitDy=0;entryX=0.5;entryY=0;entryDx=0;entryDy=0;endArrow=none;endFill=0;" edge="1" parent="1" source="TGcVva4WvWsiuMBKOWC4-18" target="TGcVva4WvWsiuMBKOWC4-31">
          <mxGeometry relative="1" as="geometry">
            <mxPoint x="740" y="120" as="sourcePoint" />
            <mxPoint x="740" y="240" as="targetPoint" />
          </mxGeometry>
        </mxCell>
        <mxCell id="TGcVva4WvWsiuMBKOWC4-33" value="" style="curved=1;endArrow=none;html=1;rounded=0;fontSize=36;entryX=0;entryY=1;entryDx=0;entryDy=0;exitX=0;exitY=0;exitDx=0;exitDy=0;endFill=0;" edge="1" parent="1" source="TGcVva4WvWsiuMBKOWC4-19" target="TGcVva4WvWsiuMBKOWC4-18">
          <mxGeometry width="50" height="50" relative="1" as="geometry">
            <mxPoint x="630" y="290" as="sourcePoint" />
            <mxPoint x="680" y="240" as="targetPoint" />
            <Array as="points">
              <mxPoint x="710" y="210" />
              <mxPoint x="710" y="150" />
            </Array>
          </mxGeometry>
        </mxCell>
        <mxCell id="TGcVva4WvWsiuMBKOWC4-34" value="" style="ellipse;whiteSpace=wrap;html=1;aspect=fixed;fontSize=36;" vertex="1" parent="1">
          <mxGeometry x="850" y="170" width="20" height="20" as="geometry" />
        </mxCell>
        <mxCell id="TGcVva4WvWsiuMBKOWC4-35" value="" style="edgeStyle=orthogonalEdgeStyle;rounded=0;orthogonalLoop=1;jettySize=auto;html=1;exitX=0.5;exitY=1;exitDx=0;exitDy=0;entryX=0.5;entryY=0;entryDx=0;entryDy=0;fontSize=24;endArrow=none;endFill=0;" edge="1" parent="1" source="TGcVva4WvWsiuMBKOWC4-22" target="TGcVva4WvWsiuMBKOWC4-34">
          <mxGeometry relative="1" as="geometry">
            <mxPoint x="860" y="80" as="sourcePoint" />
            <mxPoint x="860" y="280" as="targetPoint" />
          </mxGeometry>
        </mxCell>
        <mxCell id="TGcVva4WvWsiuMBKOWC4-36" value="" style="ellipse;whiteSpace=wrap;html=1;aspect=fixed;fontSize=36;" vertex="1" parent="1">
          <mxGeometry x="930" y="160" width="20" height="20" as="geometry" />
        </mxCell>
        <mxCell id="TGcVva4WvWsiuMBKOWC4-37" value="" style="endArrow=none;html=1;rounded=0;fontSize=24;entryX=0;entryY=0;entryDx=0;entryDy=0;exitX=0.5;exitY=1;exitDx=0;exitDy=0;" edge="1" parent="1" source="TGcVva4WvWsiuMBKOWC4-22" target="TGcVva4WvWsiuMBKOWC4-36">
          <mxGeometry width="50" height="50" relative="1" as="geometry">
            <mxPoint x="874.1421356237311" y="74.14213562373106" as="sourcePoint" />
            <mxPoint x="1005.8578643762689" y="245.85786437626894" as="targetPoint" />
          </mxGeometry>
        </mxCell>
        <mxCell id="TGcVva4WvWsiuMBKOWC4-38" value="" style="ellipse;whiteSpace=wrap;html=1;aspect=fixed;fontSize=36;" vertex="1" parent="1">
          <mxGeometry x="990" y="190" width="20" height="20" as="geometry" />
        </mxCell>
        <mxCell id="TGcVva4WvWsiuMBKOWC4-39" value="" style="endArrow=none;html=1;rounded=0;fontSize=24;exitX=1;exitY=0;exitDx=0;exitDy=0;" edge="1" parent="1" source="TGcVva4WvWsiuMBKOWC4-23" target="TGcVva4WvWsiuMBKOWC4-38">
          <mxGeometry width="50" height="50" relative="1" as="geometry">
            <mxPoint x="874.1421356237311" y="285.85786437626894" as="sourcePoint" />
            <mxPoint x="1120" y="110" as="targetPoint" />
          </mxGeometry>
        </mxCell>
        <mxCell id="TGcVva4WvWsiuMBKOWC4-40" value="" style="ellipse;whiteSpace=wrap;html=1;aspect=fixed;fontSize=36;" vertex="1" parent="1">
          <mxGeometry x="930" y="280" width="20" height="20" as="geometry" />
        </mxCell>
        <mxCell id="TGcVva4WvWsiuMBKOWC4-41" value="" style="endArrow=none;html=1;rounded=0;fontSize=24;" edge="1" parent="1" target="TGcVva4WvWsiuMBKOWC4-40">
          <mxGeometry width="50" height="50" relative="1" as="geometry">
            <mxPoint x="880" y="300" as="sourcePoint" />
            <mxPoint x="1000" y="270" as="targetPoint" />
          </mxGeometry>
        </mxCell>
        <mxCell id="TGcVva4WvWsiuMBKOWC4-42" value="" style="ellipse;whiteSpace=wrap;html=1;aspect=fixed;fontSize=36;" vertex="1" parent="1">
          <mxGeometry x="1070" y="180" width="20" height="20" as="geometry" />
        </mxCell>
        <mxCell id="TGcVva4WvWsiuMBKOWC4-43" value="" style="endArrow=none;html=1;rounded=0;fontSize=24;exitX=1;exitY=0;exitDx=0;exitDy=0;entryX=0.35;entryY=0.995;entryDx=0;entryDy=0;entryPerimeter=0;" edge="1" parent="1" source="TGcVva4WvWsiuMBKOWC4-24" target="TGcVva4WvWsiuMBKOWC4-42">
          <mxGeometry width="50" height="50" relative="1" as="geometry">
            <mxPoint x="1034.142135623731" y="245.85786437626894" as="sourcePoint" />
            <mxPoint x="1134" y="119.79999999999995" as="targetPoint" />
          </mxGeometry>
        </mxCell>
        <mxCell id="TGcVva4WvWsiuMBKOWC4-45" value="" style="curved=1;endArrow=none;html=1;rounded=0;fontSize=36;exitX=0.5;exitY=0;exitDx=0;exitDy=0;endFill=0;" edge="1" parent="1" source="TGcVva4WvWsiuMBKOWC4-23">
          <mxGeometry width="50" height="50" relative="1" as="geometry">
            <mxPoint x="735.8578643762689" y="255.85786437626894" as="sourcePoint" />
            <mxPoint x="860" y="80" as="targetPoint" />
            <Array as="points">
              <mxPoint x="840" y="240" />
              <mxPoint x="840" y="130" />
            </Array>
          </mxGeometry>
        </mxCell>
        <mxCell id="TGcVva4WvWsiuMBKOWC4-46" value="" style="curved=1;endArrow=none;html=1;rounded=0;fontSize=36;exitX=0;exitY=0;exitDx=0;exitDy=0;endFill=0;entryX=0.5;entryY=1;entryDx=0;entryDy=0;" edge="1" parent="1" source="TGcVva4WvWsiuMBKOWC4-24" target="TGcVva4WvWsiuMBKOWC4-22">
          <mxGeometry width="50" height="50" relative="1" as="geometry">
            <mxPoint x="863.2" y="292.20000000000005" as="sourcePoint" />
            <mxPoint x="870" y="80" as="targetPoint" />
            <Array as="points">
              <mxPoint x="960" y="220" />
              <mxPoint x="890" y="150" />
            </Array>
          </mxGeometry>
        </mxCell>
        <mxCell id="TGcVva4WvWsiuMBKOWC4-47" value="" style="curved=1;endArrow=none;html=1;rounded=0;fontSize=36;exitX=0.99;exitY=0.675;exitDx=0;exitDy=0;exitPerimeter=0;endFill=0;" edge="1" parent="1" source="TGcVva4WvWsiuMBKOWC4-23">
          <mxGeometry width="50" height="50" relative="1" as="geometry">
            <mxPoint x="930" y="400" as="sourcePoint" />
            <mxPoint x="1000" y="270" as="targetPoint" />
            <Array as="points">
              <mxPoint x="920" y="320" />
              <mxPoint x="970" y="307" />
            </Array>
          </mxGeometry>
        </mxCell>
        <mxCell id="TGcVva4WvWsiuMBKOWC4-48" value="" style="curved=1;endArrow=none;html=1;rounded=0;fontSize=36;exitX=1;exitY=0;exitDx=0;exitDy=0;endFill=0;" edge="1" parent="1" source="TGcVva4WvWsiuMBKOWC4-24">
          <mxGeometry width="50" height="50" relative="1" as="geometry">
            <mxPoint x="889.5999999999999" y="317" as="sourcePoint" />
            <mxPoint x="1140" y="120" as="targetPoint" />
            <Array as="points">
              <mxPoint x="1080" y="240" />
              <mxPoint x="1130" y="170" />
            </Array>
          </mxGeometry>
        </mxCell>
        <mxCell id="TGcVva4WvWsiuMBKOWC4-49" value="" style="curved=1;endArrow=none;html=1;rounded=0;fontSize=36;exitX=1;exitY=0;exitDx=0;exitDy=0;endFill=0;" edge="1" parent="1" source="TGcVva4WvWsiuMBKOWC4-23">
          <mxGeometry width="50" height="50" relative="1" as="geometry">
            <mxPoint x="1044.142135623731" y="255.85786437626894" as="sourcePoint" />
            <mxPoint x="1120" y="110" as="targetPoint" />
            <Array as="points">
              <mxPoint x="950" y="260" />
              <mxPoint x="1050" y="190" />
            </Array>
          </mxGeometry>
        </mxCell>
        <mxCell id="TGcVva4WvWsiuMBKOWC4-50" value="&lt;font style=&quot;font-size: 24px;&quot;&gt;&lt;i&gt;k&#39;&lt;/i&gt; = &lt;i&gt;k&lt;/i&gt; + &lt;i&gt;n&lt;sub&gt;I&lt;/sub&gt; &lt;/i&gt;= 4&lt;/font&gt;" style="text;html=1;strokeColor=none;fillColor=none;align=center;verticalAlign=middle;whiteSpace=wrap;rounded=0;fontSize=24;" vertex="1" parent="1">
          <mxGeometry x="1100" y="240" width="150" height="40" as="geometry" />
        </mxCell>
        <mxCell id="TGcVva4WvWsiuMBKOWC4-51" value="" style="ellipse;whiteSpace=wrap;html=1;aspect=fixed;" vertex="1" parent="1">
          <mxGeometry x="350" y="40" width="40" height="40" as="geometry" />
        </mxCell>
        <mxCell id="TGcVva4WvWsiuMBKOWC4-52" value="" style="ellipse;whiteSpace=wrap;html=1;aspect=fixed;" vertex="1" parent="1">
          <mxGeometry x="990" y="40" width="40" height="40" as="geometry" />
        </mxCell>
      </root>
    </mxGraphModel>
  </diagram>
</mxfile>
